<?xml version="1.0" encoding="UTF-8"?>
<!DOCTYPE svg PUBLIC "-//W3C//DTD SVG 1.1//EN" "http://www.w3.org/Graphics/SVG/1.1/DTD/svg11.dtd">
<svg xmlns="http://www.w3.org/2000/svg" version="1.1" width="48px" height="48px" style="shape-rendering:geometricPrecision; text-rendering:geometricPrecision; image-rendering:optimizeQuality; fill-rule:evenodd; clip-rule:evenodd" xmlns:xlink="http://www.w3.org/1999/xlink">
<g><path style="opacity:0.995" fill="#4fe4fe" d="M 44.5,11.5 C 38.1951,15.6563 31.8618,19.823 25.5,24C 24.1667,24.6667 22.8333,24.6667 21.5,24C 18.9406,22.2226 16.2739,20.7226 13.5,19.5C 10.4029,16.1116 6.73627,13.4449 2.5,11.5C 2.5,10.1667 2.5,8.83333 2.5,7.5C 16.5,7.5 30.5,7.5 44.5,7.5C 44.5,8.83333 44.5,10.1667 44.5,11.5 Z"/></g>
<g><path style="opacity:1" fill="#1fa1e2" d="M 44.5,11.5 C 44.5,16.5 44.5,21.5 44.5,26.5C 41.2911,28.2651 38.2911,30.2651 35.5,32.5C 33.3131,31.242 30.9798,30.242 28.5,29.5C 26.6829,26.4254 24.0162,25.2587 20.5,26C 20.9574,26.414 21.2907,26.914 21.5,27.5C 19.1391,31.5172 16.8058,35.5172 14.5,39.5C 10.5,39.5 6.5,39.5 2.5,39.5C 2.5,37.5 2.5,35.5 2.5,33.5C 5.80694,29.5737 8.64027,25.2404 11,20.5C 11.6708,19.7476 12.5041,19.4142 13.5,19.5C 16.2739,20.7226 18.9406,22.2226 21.5,24C 22.8333,24.6667 24.1667,24.6667 25.5,24C 31.8618,19.823 38.1951,15.6563 44.5,11.5 Z"/></g>
<g><path style="opacity:1" fill="#26abe7" d="M 2.5,11.5 C 6.73627,13.4449 10.4029,16.1116 13.5,19.5C 12.5041,19.4142 11.6708,19.7476 11,20.5C 8.64027,25.2404 5.80694,29.5737 2.5,33.5C 2.5,26.1667 2.5,18.8333 2.5,11.5 Z"/></g>
<g><path style="opacity:1" fill="#1799e0" d="M 28.5,29.5 C 26.8333,32.8333 25.1667,36.1667 23.5,39.5C 20.5,39.5 17.5,39.5 14.5,39.5C 16.8058,35.5172 19.1391,31.5172 21.5,27.5C 21.2907,26.914 20.9574,26.414 20.5,26C 24.0162,25.2587 26.6829,26.4254 28.5,29.5 Z"/></g>
<g><path style="opacity:1" fill="#1291dd" d="M 28.5,29.5 C 30.9798,30.242 33.3131,31.242 35.5,32.5C 38.1667,34.8333 40.8333,37.1667 43.5,39.5C 36.8333,39.5 30.1667,39.5 23.5,39.5C 25.1667,36.1667 26.8333,32.8333 28.5,29.5 Z"/></g>
<g><path style="opacity:1" fill="#1798e0" d="M 44.5,26.5 C 44.8182,31.0323 44.4849,35.3656 43.5,39.5C 40.8333,37.1667 38.1667,34.8333 35.5,32.5C 38.2911,30.2651 41.2911,28.2651 44.5,26.5 Z"/></g>
</svg>
